<svg xmlns="http://www.w3.org/2000/svg" xmlns:xlink="http://www.w3.org/1999/xlink" id="Layer_1" x="0" y="0" version="1.1" viewBox="0 0 460 460" xml:space="preserve" style="enable-background:new 0 0 460 460"><g id="XMLID_1576_"><g id="Bucket"><path id="XMLID_1482_" d="M370,460H90c-22.091,0-40-17.909-40-40V0h360v420 C410,442.091,392.091,460,370,460z" style="fill:#aaafad"/><path id="XMLID_1483_" d="M240,460h-20c-60.751,0-110-49.249-110-110V0h240v350 C350,410.751,300.751,460,240,460z" style="fill:#c3c9c7"/><path id="XMLID_495_" d="M120,10H25c-2.761,0-5-2.239-5-5l0,0c0-2.761,2.239-5,5-5h95V10z" style="fill:#515056"/><path id="XMLID_838_" d="M440,5L440,5c0,2.761-2.239,5-5,5h-55V0h55C437.761,0,440,2.239,440,5z" style="fill:#515056"/><path id="XMLID_845_" d="M415,300H45c-2.761,0-5-2.239-5-5l0,0c0-2.761,2.239-5,5-5h370 c2.761,0,5,2.239,5,5l0,0C420,297.761,417.761,300,415,300z" style="fill:#8a8e8c"/><path id="XMLID_846_" d="M415,330H45c-2.761,0-5-2.239-5-5l0,0c0-2.761,2.239-5,5-5h370 c2.761,0,5,2.239,5,5l0,0C420,327.761,417.761,330,415,330z" style="fill:#8a8e8c"/><path id="XMLID_847_" d="M415,360H45c-2.761,0-5-2.239-5-5l0,0c0-2.761,2.239-5,5-5h370 c2.761,0,5,2.239,5,5l0,0C420,357.761,417.761,360,415,360z" style="fill:#8a8e8c"/><path id="XMLID_849_" d="M415,390H45c-2.761,0-5-2.239-5-5l0,0c0-2.761,2.239-5,5-5h370 c2.761,0,5,2.239,5,5l0,0C420,387.761,417.761,390,415,390z" style="fill:#8a8e8c"/><path id="XMLID_856_" d="M350,300H110v-10h240V300z" style="fill:#aaafad"/><path id="XMLID_1497_" d="M385,10H110V0h275c2.761,0,5,2.239,5,5l0,0C390,7.761,387.761,10,385,10z" style="fill:#8a8e8c"/><path id="XMLID_855_" d="M350,330H110v-10h240V330z" style="fill:#aaafad"/><path id="XMLID_852_" d="M350,350L350,350c0,3.372-0.16,6.706-0.457,10H110.457 c-0.297-3.294-0.457-6.628-0.457-10l0,0H350z" style="fill:#aaafad"/><path id="XMLID_851_" d="M117.503,390c-1.274-3.261-2.398-6.596-3.361-10h231.716 c-0.963,3.404-2.087,6.739-3.361,10H117.503z" style="fill:#aaafad"/><path id="XMLID_948_" d="M287.381,215H172.619C91.222,215,25,151.687,25,73.864V10c0-2.761,2.239-5,5-5 s5,2.239,5,5v63.864C35,146.172,96.736,205,172.619,205h114.762C363.265,205,425,146.172,425,73.864V10c0-2.761,2.238-5,5-5 s5,2.239,5,5v63.864C435,151.687,368.778,215,287.381,215z" style="fill:#515056"/></g><g id="Drips"><path id="XMLID_1517_" d="M260,100L260,100c-16.569,0-30-13.431-30-30V0h60v70 C290,86.569,276.569,100,260,100z" style="fill:#f7c843"/><path id="XMLID_842_" d="M310,170L310,170c-16.569,0-30-13.431-30-30V0h60v140 C340,156.569,326.569,170,310,170z" style="fill:#f7c843"/><path id="XMLID_1516_" d="M230,55V0h30v55c0,8.284-6.716,15-15,15l0,0C236.716,70,230,63.284,230,55z" style="fill:#fcdb70"/><path id="XMLID_1518_" d="M280,115V0h30v115c0,8.284-6.716,15-15,15l0,0C286.716,130,280,123.284,280,115z" style="fill:#fcdb70"/><path id="XMLID_844_" d="M350,120L350,120c-16.569,0-30-13.431-30-30V0h60v90 C380,106.569,366.569,120,350,120z" style="fill:#f7c843"/><path id="XMLID_843_" d="M330,75V0h30v75c0,8.284-6.716,15-15,15l0,0C336.716,90,330,83.284,330,75z" style="fill:#fcdb70"/><path id="XMLID_1515_" d="M385,10H225c-2.761,0-5-2.239-5-5l0,0c0-2.761,2.239-5,5-5h160 c2.761,0,5,2.239,5,5l0,0C390,7.761,387.761,10,385,10z" style="fill:#fcdb70"/></g></g></svg>